<?xml version="1.0" encoding="UTF-8" standalone="no"?>
<svg
   width="272mm"
   height="66mm"
   viewBox="0 0 272 66"
   version="1.1"
   id="svg1004"
   inkscape:version="1.1.2 (b8e25be833, 2022-02-05)"
   sodipodi:docname="HERZ слово для сайта - 4.svg"
   xmlns:inkscape="http://www.inkscape.org/namespaces/inkscape"
   xmlns:sodipodi="http://sodipodi.sourceforge.net/DTD/sodipodi-0.dtd"
   xmlns:xlink="http://www.w3.org/1999/xlink"
   xmlns="http://www.w3.org/2000/svg"
   xmlns:svg="http://www.w3.org/2000/svg"
   xmlns:rdf="http://www.w3.org/1999/02/22-rdf-syntax-ns#"
   xmlns:cc="http://creativecommons.org/ns#"
   xmlns:dc="http://purl.org/dc/elements/1.1/">
  <defs
     id="defs998">
    <linearGradient
       inkscape:collect="always"
       id="linearGradient21628">
      <stop
         style="stop-color:#000000;stop-opacity:1"
         offset="0"
         id="stop21624" />
      <stop
         style="stop-color:#ffffff;stop-opacity:1"
         offset="1"
         id="stop21626" />
    </linearGradient>
    <linearGradient
       id="linearGradient11120"
       inkscape:swatch="solid">
      <stop
         style="stop-color:#000000;stop-opacity:0.00784314;"
         offset="0"
         id="stop11118" />
    </linearGradient>
    <rect
       x="-8.0451914"
       y="-62.504948"
       width="247.54435"
       height="58.172922"
       id="rect871" />
    <rect
       x="-19.446102"
       y="-1.6853289"
       width="24.76137"
       height="34.22514"
       id="rect992" />
    <rect
       x="37.40128"
       y="28.600979"
       width="105.60362"
       height="30.067696"
       id="rect969" />
    <rect
       x="3.8892205"
       y="7.7784409"
       width="135.08559"
       height="53.152679"
       id="rect855" />
    <inkscape:path-effect
       effect="bspline"
       id="path-effect848"
       is_visible="true"
       lpeversion="1"
       weight="33.333333"
       steps="2"
       helper_size="0"
       apply_no_weight="true"
       apply_with_weight="true"
       only_selected="false" />
    <rect
       x="28.614784"
       y="-57.858463"
       width="106.91238"
       height="46.223881"
       id="rect845" />
    <rect
       x="-0.83972526"
       y="63.539207"
       width="190.05782"
       height="48.704063"
       id="rect850" />
    <rect
       x="19.915953"
       y="5.3619871"
       width="127.15569"
       height="32.171921"
       id="rect2223" />
    <rect
       x="-180.67262"
       y="47.625"
       width="465.66666"
       height="189.74405"
       id="rect1569" />
    <rect
       x="-0.83972526"
       y="63.539207"
       width="190.05782"
       height="48.704063"
       id="rect850-2" />
    <rect
       x="-0.83972526"
       y="63.539207"
       width="190.05782"
       height="48.704063"
       id="rect883" />
    <rect
       x="3.8892205"
       y="7.778441"
       width="135.08559"
       height="53.152679"
       id="rect855-9" />
    <rect
       x="3.8892205"
       y="7.778441"
       width="135.08559"
       height="53.152679"
       id="rect868" />
    <filter
       inkscape:collect="always"
       style="color-interpolation-filters:sRGB"
       id="filter949"
       x="-0.034366863"
       width="1.0687337"
       y="-0.034366863"
       height="1.0687337">
      <feGaussianBlur
         inkscape:collect="always"
         stdDeviation="0.16335495"
         id="feGaussianBlur951" />
    </filter>
    <linearGradient
       inkscape:collect="always"
       xlink:href="#linearGradient21628"
       id="linearGradient21632"
       gradientUnits="userSpaceOnUse"
       x1="235.08864"
       y1="26.178663"
       x2="168.9149"
       y2="49.714588" />
  </defs>
  <sodipodi:namedview
     id="base"
     pagecolor="#ffffff"
     bordercolor="#666666"
     borderopacity="1.0"
     inkscape:pageopacity="0.0"
     inkscape:pageshadow="2"
     inkscape:zoom="1.4228833"
     inkscape:cx="747.77742"
     inkscape:cy="48.493084"
     inkscape:document-units="mm"
     inkscape:current-layer="layer1"
     inkscape:document-rotation="0"
     showgrid="false"
     inkscape:window-width="1788"
     inkscape:window-height="933"
     inkscape:window-x="4"
     inkscape:window-y="141"
     inkscape:window-maximized="0"
     showguides="true"
     inkscape:snap-text-baseline="true"
     inkscape:snap-object-midpoints="false"
     inkscape:snap-center="false"
     inkscape:snap-nodes="true"
     inkscape:snap-global="false"
     inkscape:snap-bbox="true"
     inkscape:object-paths="true"
     inkscape:guide-bbox="true"
     inkscape:pagecheckerboard="0">
    <sodipodi:guide
       position="152.91776,8.1463345"
       orientation="1,0"
       id="guide865" />
  </sodipodi:namedview>
  <metadata
     id="metadata1001">
    <rdf:RDF>
      <cc:Work
         rdf:about="">
        <dc:format>image/svg+xml</dc:format>
        <dc:type
           rdf:resource="http://purl.org/dc/dcmitype/StillImage" />
      </cc:Work>
    </rdf:RDF>
  </metadata>
  <g
     inkscape:groupmode="layer"
     id="layer3"
     inkscape:label="Слой 3"
     style="display:inline" />
  <g
     inkscape:groupmode="layer"
     id="layer4"
     inkscape:label="Layer 1"
     style="display:none">
    <rect
       style="fill:#ff0000;stroke-width:2.3;stroke-linecap:square;stroke-linejoin:miter;stroke-miterlimit:4;stroke-dasharray:none;stroke-dashoffset:10.8095"
       id="rect1071"
       width="309.19278"
       height="85.110252"
       x="-9.8678551"
       y="-10.690176" />
  </g>
  <g
     inkscape:groupmode="layer"
     id="layer2"
     inkscape:label="Слой 2"
     style="display:inline;opacity:0.99" />
  <g
     inkscape:label="Слой 1"
     inkscape:groupmode="layer"
     id="layer1"
     style="display:inline">
    <path
       style="fill:#000000;stroke:none;stroke-width:1"
       d="m 241.16277,36.301068 3.94044,0.443528 c 1.2812,-2.246208 2.06303,-4.299851 1.5973,-6.872659 -0.22412,-1.238318 -1.01722,-2.754688 -2.44722,-2.837897 -1.43059,-0.08327 -2.43409,1.239952 -2.90306,2.425695 -0.94149,2.3804 -0.9229,4.414234 -0.18746,6.841333 m -2.69276,1.977114 c 0.44662,-0.551776 1.57307,-1.187126 1.67656,-1.904269 0.11027,-0.764208 -0.70797,-1.777777 -1.07352,-2.398246 -1.09711,-1.862205 -3.79651,-6.247901 -6.47853,-5.776547 -2.07789,0.365181 -0.16319,3.860051 0.43362,4.716106 0.59352,0.851326 1.26808,1.682616 1.96974,2.446927 0.99318,1.081844 2.11657,2.309749 3.47213,2.916029 m 7.3204,-0.886184 c 0,0 2.11648,2.242261 1.7894,1.951527 0.82302,0.34274 5.7056,-2.40212 7.41504,-4.046155 1.70945,-1.644034 3.02856,-4.970954 2.30787,-5.874621 -0.72102,-0.903835 -3.37204,-1.184066 -6.28984,1.010109 -2.9178,2.194176 -4.62434,4.23018 -5.5132,6.704747 m -8.12061,5.768217 0.44353,-3.940438 c -2.28237,-1.301924 -5.56933,-2.150698 -8.17927,-1.612383 -1.2337,0.254352 -2.7558,1.022284 -2.83959,2.462304 -0.0833,1.430772 1.24005,2.43366 2.42569,2.903061 2.46401,0.975656 5.62396,0.952819 8.14964,0.187456 m 10.38845,-2.821055 -0.44353,3.940438 c 2.27501,1.329283 5.55966,2.146113 8.17634,1.63839 1.23296,-0.239167 2.79948,-1.066515 2.886,-2.483424 0.081,-1.329176 -1.1797,-2.3881 -2.28283,-2.875253 -2.43835,-1.076637 -5.82241,-1.010376 -8.33598,-0.220151 m -8.41133,5.513818 -1.49867,-1.878843 c -2.61268,0.316823 -5.93125,3.038102 -7.50968,5.045256 -0.56519,0.718684 -1.64568,2.27511 -0.90487,3.203881 0.74044,0.928161 2.49886,0.221804 3.32481,-0.170164 2.29578,-1.089384 5.70903,-3.736735 6.58841,-6.20013 m 7.3204,-0.886184 -1.87884,1.498676 c 0.31232,2.619005 1.65211,4.402566 3.84598,6.191612 0.7839,0.639384 2.48157,1.861523 3.49459,1.023723 1.01286,-0.838039 0.24122,-2.826253 -0.18559,-3.760985 -1.41849,-3.081038 -2.79209,-4.066322 -5.27614,-4.953026 m -6.82084,1.512465 c -0.72518,2.746212 -2.01983,5.258829 -1.45081,8.197452 0.24881,1.284589 1.00536,2.791267 2.48346,2.886195 1.45566,0.09332 2.46892,-1.249461 2.95151,-2.464458 1.07954,-2.718484 0.42651,-5.340692 0.33155,-8.13342 z"
       id="path876"
       sodipodi:nodetypes="ccsssccsssssccczczcccccccccccccccsccccccccccccccc" />
    <path
       id="path265"
       style="fill:url(#linearGradient21632);fill-opacity:1;stroke:#000000;stroke-width:1;stroke-miterlimit:4;stroke-dasharray:none;stroke-opacity:0"
       d="m 129.38609,52.271756 c 0.98128,-0.272555 1.37657,-0.764828 1.13004,-1.407279 -0.10016,-0.261001 -0.71853,-0.348977 -2.32468,-0.330729 -2.0163,0.02291 -2.26604,-0.03433 -3.17866,-0.728509 -1.36764,-1.040286 -2.64709,-2.882003 -3.48478,-5.016195 -0.38876,-0.990449 -0.66393,-1.8376 -0.61148,-1.882558 0.0525,-0.04496 0.70318,-0.280223 1.44606,-0.522812 2.92401,-0.954825 5.47653,-3.193893 6.81749,-5.980273 0.77275,-1.605725 0.82765,-1.912829 0.82765,-4.630208 0,-2.609937 -0.0738,-3.067984 -0.71518,-4.4366 -1.36997,-2.92351 -4.61764,-5.387596 -8.28065,-6.282737 -0.83972,-0.205205 -4.48786,-0.369131 -9.98802,-0.448805 l -8.66511,-0.125518 v 15.767142 15.767142 h 5.68854 5.68855 V 37.188848 c 0,-13.6937 0.0342,-14.838108 0.44862,-14.997125 0.76299,-0.292785 6.22217,0.38281 7.76857,0.961393 3.40796,1.27508 5.41175,3.302558 6.22715,6.300766 1.20288,4.422957 -1.0769,9.122221 -5.40217,11.135402 -1.30121,0.605641 -1.81926,0.694115 -3.8828,0.663125 -2.45499,-0.03687 -3.04271,0.155302 -3.04271,0.994912 0,0.627261 0.77438,1.035246 1.96496,1.035246 0.93136,0 0.95417,0.02728 2.13433,2.552766 1.4012,2.998475 2.62297,4.586253 4.27327,5.553392 1.86418,1.092483 3.43767,1.361702 5.16101,0.883031 z M 67.424466,51.766627 c 0.175331,-0.327612 0.273891,-4.214429 0.273891,-10.801251 V 30.675894 l 0.992188,-0.245099 c 0.816583,-0.201724 0.992187,-0.36217 0.992187,-0.90656 0,-0.572524 -0.132487,-0.672444 -0.98538,-0.74317 l -0.985379,-0.08171 -0.07295,-12.428306 c -0.02034,-3.464677 -0.134065,-4.029376 -0.535975,-4.282558 -0.337473,-0.212593 -0.588568,-0.21241 -0.926041,7.93e-4 -0.40825,0.257771 -0.463021,0.774015 -0.463021,4.364273 v 12.509342 l -5.490104,0.07151 -5.490104,0.07151 V 24.767218 20.528516 H 49.045233 43.356691 V 36.271223 52.01393 h 5.688542 5.688541 V 41.298314 30.582689 h 5.576358 5.576358 l -0.06403,10.537537 c -0.03522,5.795647 0.0223,10.677209 0.127799,10.847916 0.299146,0.484031 1.171125,0.36491 1.474203,-0.201393 z m 28.712105,-0.277013 c 0.378595,-0.418341 0.409773,-0.602076 0.15439,-0.909794 -0.267346,-0.32213 -1.078892,-0.359833 -4.931307,-0.229092 l -4.611298,0.156496 v -9.955255 -9.955254 l 3.899283,-0.07322 c 3.613648,-0.06786 3.906478,-0.110699 3.997521,-0.584896 0.184531,-0.961146 -0.523248,-1.124577 -4.313573,-0.996026 l -3.583231,0.121526 v -3.474098 -3.474098 l 2.711979,0.0021 c 1.491588,0.0011 3.47667,0.126072 4.411289,0.277717 1.538639,0.249648 1.747536,0.227489 2.209374,-0.234346 0.417896,-0.417899 0.455771,-0.611508 0.209608,-1.071467 -0.298312,-0.55752 -2.917907,-0.56152 -10.609891,-0.56152 H 75.371273 v 15.742722 15.742708 h 10.14545 c 9.777415,0 10.162661,-0.01902 10.619848,-0.524203 z m 48.263149,0.524222 h -11.56833 l 1.3936,-3.505729 c 0.76648,-1.928151 2.67869,-6.839479 4.24936,-10.914062 1.57066,-4.074583 3.55267,-9.166151 4.40446,-11.314594 0.85179,-2.148443 1.54871,-3.964145 1.54871,-4.034895 0,-0.246473 -6.26368,-0.126625 -7.75091,0.148309 -1.0621,0.19635 -1.65377,0.193641 -2.03297,-0.0093 -0.67829,-0.363006 -0.69086,-1.223865 -0.0231,-1.58124 0.54796,-0.293256 21.44865,-0.40449 21.44865,-0.114152 0,0.08786 -1.02835,2.856061 -2.28521,6.151562 -4.7677,12.500917 -8.61739,22.678926 -8.76012,23.160468 -0.14281,0.481775 0.0665,0.496165 5.77485,0.396875 5.86777,-0.102091 17.10906,-1.763472 20.30184,-5.918957 2.56008,-3.332007 6.69269,-1.648467 11.94866,-4.016965 9.11588,-4.229585 12.61125,-9.567256 14.77661,-12.188903 4.24966,-5.145138 6.59581,-6.608228 10.48922,-4.619127 4.40807,2.252032 8.57991,9.293847 14.84986,0.07733 2.29443,-3.373828 5.51074,-7.06441 8.64592,-7.094601 1.72251,-0.01659 3.27661,1.145724 4.28041,2.447068 1.36076,1.764117 2.32112,4.071561 2.80933,6.010298 0.95258,3.782822 1.13512,5.663969 2.10353,10.451093 l 0.36138,0.885703 -1.39172,0.537421 -0.12992,-1.088954 c -1.04202,-4.116406 -1.11873,-5.291135 -1.97764,-8.86419 -0.5364,-2.231409 -1.54301,-4.986176 -2.56092,-6.231088 -1.01791,-1.244912 -2.18518,-1.937273 -3.67369,-1.904297 -2.96075,0.0656 -4.81982,3.766755 -7.20511,7.206421 -2.45314,3.537498 -3.6083,4.571724 -5.56399,5.56985 -1.59035,0.811666 -3.78401,0.893688 -5.43363,-0.103733 -2.27807,-1.377405 -4.38276,-3.485851 -6.9687,-3.463707 -7.24482,0.06204 -17.59619,15.017281 -27.86417,19.746344 -10.61462,4.382082 -23.96942,4.179754 -34.19626,4.179754 z"
       sodipodi:nodetypes="ssssscssscsscccccssssssssssscscssscsscscccccccccccccccssccssscccsssccccsscscccssscsssssssssssscsscsssccccssssssscss" />
    <path
       id="path878"
       style="display:inline;opacity:0.997;fill:#00ff00;stroke-width:0.800001;stroke-linecap:round;stroke-linejoin:round;stroke-dashoffset:10.8095;filter:url(#filter949)"
       d="m 247.92584,43.541446 a 5.7039237,5.7039237 0 0 1 -7.12697,3.39248 5.7039237,5.7039237 0 0 1 -3.69246,-6.976268 5.7039237,5.7039237 0 0 1 6.81294,-3.985769 5.7039237,5.7039237 0 0 1 4.27187,6.637302" />
  </g>
</svg>
